<svg xmlns="http://www.w3.org/2000/svg" version="1.1" xmlns:xlink="http://www.w3.org/1999/xlink" xmlns:svgjs="http://svgjs.dev/svgjs" width="1000" height="1000" viewBox="0 0 1000 1000"><rect width="1000" height="1000" fill="#164e63"></rect><g transform="matrix(0.7,0,0,0.7,149.7356602322089,121.2569230769231)"><svg viewBox="0 0 228 247" data-background-color="#164e63" preserveAspectRatio="xMidYMid meet" height="1083" width="1000" xmlns="http://www.w3.org/2000/svg" xmlns:xlink="http://www.w3.org/1999/xlink"><defs></defs><g id="tight-bounds" transform="matrix(1,0,0,1,0.08609923865196834,-0.09999999999999432)"><svg viewBox="0 0 227.82780152269606 247.2" height="247.2" width="227.82780152269606"><g><svg viewBox="0 0 341.73304482758624 370.7906064" height="247.2" width="227.82780152269606"><g><svg viewBox="0 0 341.73304482758624 370.7906064" height="370.7906064" width="341.73304482758624"><g><svg viewBox="0 0 341.73304482758624 370.7906064" height="370.7906064" width="341.73304482758624"><g><rect width="341.73304482758624" height="247.2" fill="none" stroke-width="9.018103199999999" stroke="#d1d5db" data-fill-palette-color="none" data-stroke-palette-color="tertiary"></rect><rect width="341.73304482758624" height="123.59060639999998" y="247.2" fill="#d1d5db" data-fill-palette-color="tertiary"></rect></g><g><svg viewBox="0 0 341.73304482758624 247.2" height="247.2" width="341.73304482758624"><g transform="matrix(1,0,0,1,23.607599999999998,23.607600000000012)"><svg width="294.51784482758626" viewBox="1.100000023841858 -33.900001525878906 51.25 34.80000305175781" height="199.98479999999998" data-palette-color="#d1d5db"><path d="M26.05 0L1.1 0 1.1-0.5 2.25-0.95Q3.1-1.3 3.43-1.88 3.75-2.45 3.75-3.45L3.75-3.45 3.75-29.55Q3.75-30.55 3.48-31.13 3.2-31.7 2.25-32.05L2.25-32.05 1.1-32.5 1.1-33 25.05-33 25.35-25.3 24.85-25.3 22.7-30Q22.25-30.9 21.75-31.45 21.25-32 20.25-32L20.25-32 11.25-32 11.25-17.55 16.6-17.55Q17.6-17.55 18.13-18.07 18.65-18.6 19.05-19.5L19.05-19.5 20.05-21.5 20.55-21.5 20.55-12.5 20.05-12.5 19.05-14.6Q18.6-15.5 18.1-16.03 17.6-16.55 16.6-16.55L16.6-16.55 11.25-16.55 11.25-1 21.35-1Q22.35-1 22.9-1.53 23.45-2.05 23.8-3L23.8-3 25.85-7.7 26.35-7.7 26.05 0ZM39.6 0.9L39.6 0.9Q36.85 0.9 34 0.23 31.15-0.45 29.25-1.55L29.25-1.55 29.5-8.35 30-8.35 31.55-5.1Q32.25-3.7 33.05-2.63 33.85-1.55 35.25-0.95L35.25-0.95Q36.25-0.45 37.17-0.28 38.1-0.1 39.25-0.1L39.25-0.1Q42.3-0.1 44.07-1.75 45.85-3.4 45.85-6L45.85-6Q45.85-8.45 44.65-9.83 43.45-11.2 40.8-12.5L40.8-12.5 38.75-13.4Q34.45-15.3 32.02-17.78 29.6-20.25 29.6-24.35L29.6-24.35Q29.6-27.3 31.12-29.45 32.65-31.6 35.37-32.75 38.1-33.9 41.75-33.9L41.75-33.9Q44.4-33.9 46.77-33.2 49.15-32.5 50.9-31.3L50.9-31.3 50.6-25.3 50.1-25.3 48.05-29.05Q47.2-30.8 46.35-31.53 45.5-32.25 44.4-32.55L44.4-32.55Q43.75-32.75 43.2-32.83 42.65-32.9 41.8-32.9L41.8-32.9Q39.25-32.9 37.5-31.43 35.75-29.95 35.75-27.45L35.75-27.45Q35.75-24.9 37.1-23.38 38.45-21.85 41.05-20.65L41.05-20.65 43.35-19.65Q48.15-17.55 50.25-15.18 52.35-12.8 52.35-9.05L52.35-9.05Q52.35-4.65 49.02-1.88 45.7 0.9 39.6 0.9Z" opacity="1" transform="matrix(1,0,0,1,0,0)" fill="#d1d5db" class="undefined-text-0" data-fill-palette-color="primary" id="text-0"></path></svg></g></svg></g></svg></g></svg></g></svg></g></svg><rect width="227.82780152269606" height="247.2" fill="none" stroke="none" visibility="hidden"></rect></g></svg></g></svg>